# xmcd
#
# Track frame offsets:
#	150
#	18001
#	33415
#	49222
#	63794
#	78200
#	94046
#	106058
#	120055
#	134126
#	149433
#	164182
#	183415
#	198754
#	215760
#	229593
#	244825
#	260350
#	274704
#	292098
#	310589
#
# Disc length: 4374 seconds
#
# Revision: 0
# Processed by: cddbd v1.5.2PL0 Copyright (c) Steve Scherf et al.
# Submitted via: EZCDAudioConverter 7.1.0.1
#
DISCID=26111415
DTITLE=Nu Country Traxx Volume 236 US
DYEAR=2018
DGENRE=country
TTITLE0=Brad Paisley - Bucked Off
TTITLE1=Cole Swindell - Love You Too Late
TTITLE2=Garth Brooks - Stronger Than Me
TTITLE3=Luke Combs - Beautiful Crazy
TTITLE4=Russell Dickerson - Every Little Thing
TTITLE5=Devin Dawson - Dark Horse
TTITLE6=Haley and Michaels - Taking Off
TTITLE7=Montgomery Gentry - Drink Along Song
TTITLE8=Aaron Pritchett - Better When I Do
TTITLE9=The Lovelocks - Good Way To Go
TTITLE10=David James - Cars, Girls, And The Radio
TTITLE11=Ryan Sims - Get Away
TTITLE12=Ddendyl Hoyt - Where I Come From
TTITLE13=John Schneider - Who Da Baby Daddy
TTITLE14=Runaway June - Sleigh Ride
TTITLE15=Abi - Santa Baby
TTITLE16=Mason Ramsey - White Christmas
TTITLE17=Mitchell Tenpenny - Have Yourself A Merry Little Christmas
TTITLE18=Andy Ross - Make Christmas Great Again
TTITLE19=Mags - I Never Believed In Santa Claus
TTITLE20=Jessica Lynn - Santa You Can Skip Our House
EXTD=
EXTT0=
EXTT1=
EXTT2=
EXTT3=
EXTT4=
EXTT5=
EXTT6=
EXTT7=
EXTT8=
EXTT9=
EXTT10=
EXTT11=
EXTT12=
EXTT13=
EXTT14=
EXTT15=
EXTT16=
EXTT17=
EXTT18=
EXTT19=
EXTT20=
PLAYORDER=
